<?xml version="1.0" standalone="no"?>
<!DOCTYPE svg PUBLIC "-//W3C//DTD SVG 20010904//EN"
 "http://www.w3.org/TR/2001/REC-SVG-20010904/DTD/svg10.dtd">
<svg version="1.0" xmlns="http://www.w3.org/2000/svg"
 width="83.000000pt" height="71.000000pt" viewBox="0 0 83.000000 71.000000"
 preserveAspectRatio="xMidYMid meet">

<g transform="translate(0.000000,71.000000) scale(0.100000,-0.100000)"
fill="#000000" stroke="none">
<path d="M280 693 c-107 -37 -201 -126 -251 -238 -19 -41 -23 -68 -23 -155 -1
-102 0 -108 36 -181 20 -41 48 -85 62 -98 l26 -24 0 37 c0 30 7 44 32 68 27
25 30 32 20 46 -36 49 -44 86 -33 137 6 28 20 65 31 83 11 18 20 45 20 60 l0
28 103 -34 102 -35 96 32 c52 17 98 31 102 31 4 0 7 -11 7 -25 0 -13 11 -41
25 -61 51 -74 55 -147 14 -206 -18 -25 -19 -32 -8 -39 8 -5 17 -9 21 -9 12 0
38 -57 38 -85 0 -14 3 -25 8 -25 13 1 71 84 94 136 33 74 37 211 9 295 -38
114 -137 217 -249 259 -66 25 -215 27 -282 3z m281 -129 c76 -25 139 -47 139
-49 0 -2 -66 -25 -146 -52 l-145 -48 -146 50 -145 49 138 47 c77 26 145 48
152 48 7 1 76 -19 153 -45z"/>
<path d="M230 351 c0 -6 5 -13 10 -16 6 -4 3 -17 -10 -35 -60 -84 22 -190 112
-146 17 9 32 15 32 14 20 -41 32 -58 41 -58 10 0 17 10 41 58 0 1 14 -4 30
-13 41 -21 68 -19 102 10 41 35 47 68 22 120 -11 23 -18 50 -14 59 7 19 -21
21 -78 5 -55 -15 -90 -49 -92 -87 -1 -37 -16 -44 -16 -8 0 35 -43 81 -88 94
-47 14 -92 16 -92 3z m53 -60 c-13 -52 51 -83 81 -39 l16 22 0 -24 c0 -60 -91
-95 -124 -48 -21 30 -20 50 5 82 24 31 29 32 22 7z m307 -53 c0 -58 -82 -80
-119 -32 -12 15 -21 36 -21 48 0 20 0 20 16 -2 31 -44 91 -18 81 35 l-5 28 24
-28 c13 -16 24 -38 24 -49z"/>
</g>
</svg>
